<svg width="27" height="27" viewBox="0 0 27 27" fill="none" xmlns="http://www.w3.org/2000/svg">
<path fill-rule="evenodd" clip-rule="evenodd" d="M19.4062 14.3438H10.4743L13.9523 17.82C14.2813 18.1491 14.2813 18.6891 13.9523 19.0182C13.6224 19.3472 13.0883 19.3472 12.7583 19.0182L7.98524 14.2425C7.78358 14.04 7.7203 13.7616 7.76671 13.5C7.7203 13.2384 7.78358 12.96 7.98524 12.7575L12.7583 7.98184C13.0883 7.65278 13.6224 7.65278 13.9523 7.98184C14.2813 8.31934 14.2813 8.85094 13.9523 9.18L10.4743 12.6562H19.4062C19.872 12.6562 20.25 13.0359 20.25 13.5C20.25 13.9641 19.872 14.3438 19.4062 14.3438ZM13.5 0C6.04462 0 0 6.04125 0 13.5C0 20.9587 6.04462 27 13.5 27C20.9554 27 27 20.9587 27 13.5C27 6.04125 20.9554 0 13.5 0Z" fill="#E7E7E7"/>
</svg>
