<svg width="10" height="10" viewBox="0 0 10 10" fill="none" xmlns="http://www.w3.org/2000/svg">
<path d="M5.00001 0.416687C2.46771 0.416687 0.416672 2.46773 0.416672 5.00002C0.416672 7.02815 1.72865 8.74115 3.55053 9.34844C3.77969 9.38856 3.86563 9.25106 3.86563 9.13073C3.86563 9.0219 3.8599 8.66094 3.8599 8.2771C2.70834 8.48906 2.41042 7.99635 2.31876 7.73856C2.26719 7.60677 2.04376 7.20002 1.84896 7.09115C1.68855 7.00523 1.45938 6.79323 1.84323 6.78752C2.20417 6.78177 2.46198 7.11981 2.54792 7.25731C2.96042 7.95052 3.61928 7.75573 3.88282 7.63544C3.92292 7.33752 4.04324 7.13698 4.17501 7.0224C3.15521 6.90781 2.08959 6.51252 2.08959 4.7594C2.08959 4.26094 2.26719 3.84846 2.55938 3.52762C2.51355 3.41304 2.35313 2.94325 2.60521 2.31304C2.60521 2.31304 2.98907 2.19273 3.86563 2.78283C4.2323 2.67971 4.62188 2.62815 5.01147 2.62815C5.40105 2.62815 5.79063 2.67971 6.1573 2.78283C7.03388 2.187 7.41772 2.31304 7.41772 2.31304C7.6698 2.94325 7.50938 3.41304 7.46355 3.52762C7.75576 3.84846 7.93334 4.25523 7.93334 4.7594C7.93334 6.51823 6.86201 6.90781 5.84222 7.0224C6.00834 7.16565 6.15159 7.44065 6.15159 7.87031C6.15159 8.48335 6.14584 8.97606 6.14584 9.13073C6.14584 9.25106 6.2318 9.39427 6.46097 9.34844C8.27138 8.74115 9.58334 7.0224 9.58334 5.00002C9.58334 2.46773 7.5323 0.416687 5.00001 0.416687Z" fill="#E7E7E7"/>
</svg>
