<svg width="14" height="15" viewBox="0 0 14 15" fill="none" xmlns="http://www.w3.org/2000/svg">
<path d="M13.0278 15H9.52778C8.99072 15 8.55556 14.5696 8.55556 14.0385V10.5769C8.55556 10.1519 8.2075 9.80769 7.77778 9.80769H6.22222C5.7925 9.80769 5.44444 10.1519 5.44444 10.5769V14.0385C5.44444 14.5696 5.00928 15 4.47222 15H0.972222C0.435167 15 0 14.5696 0 14.0385V6.69731C0 5.81308 0.409889 4.97769 1.11183 4.43077L6.63872 0.123462C6.85067 -0.0411538 7.14933 -0.0411538 7.36089 0.123462L12.8886 4.43077C13.5905 4.97769 14 5.81269 14 6.69654V14.0385C14 14.5696 13.5648 15 13.0278 15Z" fill="#FC7A1E"/>
</svg>
