<svg width="14" height="13" viewBox="0 0 14 13" fill="none" xmlns="http://www.w3.org/2000/svg">
<path d="M0.0359774 11.351C0.0362745 11.6557 0.15807 11.9478 0.374602 12.1631C0.591134 12.3785 0.884688 12.4994 1.19076 12.4994H12.8092C12.9638 12.5042 13.1178 12.4781 13.2621 12.4225C13.4063 12.3669 13.5379 12.283 13.649 12.1759C13.76 12.0687 13.8483 11.9404 13.9086 11.7986C13.9689 11.6568 14 11.5044 14 11.3504C14 11.1965 13.9689 11.0441 13.9086 10.9023C13.8483 10.7605 13.76 10.6322 13.649 10.525C13.5379 10.4179 13.4063 10.334 13.2621 10.2784C13.1178 10.2228 12.9638 10.1967 12.8092 10.2015H1.18964C0.883761 10.202 0.590613 10.3234 0.374534 10.5389C0.158455 10.7545 0.037098 11.0465 0.0370986 11.351H0.0359774ZM13.9629 6.49944C13.9626 6.19476 13.8408 5.90265 13.6243 5.68731C13.4077 5.47196 13.1142 5.351 12.8081 5.351H1.19076C0.890869 5.36031 0.606389 5.48544 0.397561 5.69991C0.188733 5.91437 0.0719548 6.20132 0.0719548 6.5C0.0719548 6.79868 0.188733 7.08563 0.397561 7.30009C0.606389 7.51456 0.890869 7.63969 1.19076 7.649H12.8104C13.1164 7.6487 13.4099 7.52746 13.6262 7.3119C13.8425 7.09635 13.9629 6.80413 13.9629 6.49944ZM13.9629 1.65011C13.9629 1.34523 13.8412 1.05284 13.6247 0.837254C13.4081 0.621671 13.1144 0.500558 12.8081 0.500558H1.19076C1.03616 0.49576 0.882166 0.52193 0.737919 0.577514C0.593672 0.633098 0.462113 0.716962 0.351049 0.82413C0.239985 0.931298 0.151681 1.05959 0.0913777 1.20138C0.031074 1.34317 0 1.49558 0 1.64955C0 1.80353 0.031074 1.95594 0.0913777 2.09773C0.151681 2.23952 0.239985 2.36781 0.351049 2.47498C0.462113 2.58214 0.593672 2.66601 0.737919 2.72159C0.882166 2.77717 1.03616 2.80335 1.19076 2.79855H12.8104C13.1164 2.79825 13.4099 2.67701 13.6262 2.46146C13.8425 2.24591 13.964 1.95368 13.964 1.64899L13.9629 1.65011Z" fill="#485696"/>
</svg>
