<svg width="14" height="15" viewBox="0 0 14 15" fill="none" xmlns="http://www.w3.org/2000/svg">
<path fill-rule="evenodd" clip-rule="evenodd" d="M5.98908 0.5C2.6814 0.5 0 3.1814 0 6.48908C0 9.79676 2.6814 12.4782 5.98908 12.4782C7.30164 12.4782 8.51559 12.0559 9.50253 11.3399L12.478 14.3154C12.7242 14.5615 13.1234 14.5615 13.3696 14.3154L13.8154 13.8696C14.0615 13.6234 14.0615 13.2242 13.8154 12.978L10.8399 10.0025C11.5559 9.01559 11.9782 7.80164 11.9782 6.48908C11.9782 3.1814 9.29676 0.5 5.98908 0.5ZM1.89129 6.48908C1.89129 4.22593 3.72593 2.39129 5.98908 2.39129C8.25226 2.39129 10.0869 4.22593 10.0869 6.48908C10.0869 8.75226 8.25226 10.5869 5.98908 10.5869C3.72593 10.5869 1.89129 8.75226 1.89129 6.48908Z" fill="#485696"/>
</svg>
