<svg width="21" height="21" viewBox="0 0 21 21" fill="none" xmlns="http://www.w3.org/2000/svg">
<path fill-rule="evenodd" clip-rule="evenodd" d="M4.49533 6.50001C4.49533 3.1863 7.18407 0.5 10.5008 0.5C13.8175 0.5 16.5063 3.1863 16.5063 6.50001C16.5063 9.81372 13.8175 12.5 10.5008 12.5C7.18407 12.5 4.49533 9.81372 4.49533 6.50001Z" fill="#020122"/>
<path fill-rule="evenodd" clip-rule="evenodd" d="M3.92576 15.4025C5.55217 14.7213 7.72158 14.5 10.5008 14.5C13.2743 14.5 15.4404 14.7204 17.0654 15.3981C18.8096 16.1255 19.8802 17.3613 20.4509 19.1587C20.6629 19.8267 20.1614 20.5 19.4682 20.5H1.52722C0.836823 20.5 0.338338 19.8297 0.54864 19.1654C1.11763 17.3681 2.18442 16.1318 3.92576 15.4025Z" fill="#020122"/>
</svg>
